<svg width="12px" height="12px" viewBox="0 0 12 12" version="1.1" xmlns="http://www.w3.org/2000/svg">
  <path d="M-2.22044605e-16,1.5 L-2.22044605e-16,3.5 C-2.22044605e-16,4.326 0.672,5 1.5,5 L3.5,5 C4.326,5 5,4.328 5,3.5 L5,1.5 C5,0.674 4.328,0 3.5,0 L1.5,0 C0.674,0 -2.22044605e-16,0.672 -2.22044605e-16,1.5 Z M-2.22044605e-16,8.5 L-2.22044605e-16,10.5 C-2.22044605e-16,11.326 0.672,12 1.5,12 L3.5,12 C4.326,12 5,11.328 5,10.5 L5,8.5 C5,7.674 4.328,7 3.5,7 L1.5,7 C0.674,7 -2.22044605e-16,7.672 -2.22044605e-16,8.5 Z M7,1.5 L7,3.5 C7,4.326 7.672,5 8.5,5 L10.5,5 C11.326,5 12,4.328 12,3.5 L12,1.5 C12,0.674 11.328,0 10.5,0 L8.5,0 C7.674,0 7,0.672 7,1.5 Z M7,8.5 L7,10.5 C7,11.326 7.672,12 8.5,12 L10.5,12 C11.326,12 12,11.328 12,10.5 L12,8.5 C12,7.674 11.328,7 10.5,7 L8.5,7 C7.674,7 7,7.672 7,8.5 Z" fill="currentColor">
</svg>
