<svg width="16px" height="16px" viewBox="0 0 16 16" version="1.1" xmlns="http://www.w3.org/2000/svg" xmlns:xlink="http://www.w3.org/1999/xlink">
  <path d="M0,1.994 C0,0.893 0.895,0 1.994,0 L14.006,0 C15.107,0 16,0.895 16,1.994 L16,14.006 C15.9994482,15.1070272 15.1070272,15.9994482 14.006,16 L1.994,16 C0.892972834,15.9994482 0.000551755136,15.1070272 -2.21489493e-16,14.006 L-2.21489493e-16,1.994 L0,1.994 Z M2,3.5 L2,5.5 C2,6.326 2.672,7 3.5,7 L5.5,7 C6.326,7 7,6.328 7,5.5 L7,3.5 C7,2.674 6.328,2 5.5,2 L3.5,2 C2.674,2 2,2.672 2,3.5 Z M2,10.5 L2,12.5 C2,13.326 2.672,14 3.5,14 L5.5,14 C6.326,14 7,13.328 7,12.5 L7,10.5 C7,9.674 6.328,9 5.5,9 L3.5,9 C2.674,9 2,9.672 2,10.5 Z M9,3.5 L9,5.5 C9,6.326 9.672,7 10.5,7 L12.5,7 C13.326,7 14,6.328 14,5.5 L14,3.5 C14,2.674 13.328,2 12.5,2 L10.5,2 C9.674,2 9,2.672 9,3.5 Z M9,10.5 L9,12.5 C9,13.326 9.672,14 10.5,14 L12.5,14 C13.326,14 14,13.328 14,12.5 L14,10.5 C14,9.674 13.328,9 12.5,9 L10.5,9 C9.674,9 9,9.672 9,10.5 Z" fill="currentColor"></path>
</svg>
