<svg width="12px" height="12px" viewBox="0 0 12 12" version="1.1" xmlns="http://www.w3.org/2000/svg" xmlns:xlink="http://www.w3.org/1999/xlink">
        <path d="M-8.8817842e-16,6.002 C-8.8817842e-16,6.557 0.452,7 1.01,7 L2.99,7 C3.25685203,7.00293849 3.51378665,6.89898566 3.70352135,6.71131738 C3.89325605,6.5236491 4.00001618,6.2678682 4,6.001 L4,4.999 C4,4.443 3.548,4 2.99,4 L1.01,4 C0.74314797,3.99706151 0.48621335,4.10101434 0.29647865,4.28868262 C0.10674395,4.4763509 -1.618e-05,4.7321318 -8.8817842e-16,4.999 L-8.8817842e-16,6.002 Z M5,6.002 C5,6.557 5.449,7 6.003,7 L10.997,7 C11.2630501,7.00241242 11.5189621,6.89806521 11.7074712,6.71030792 C11.8959803,6.52255063 12.0013493,6.2670576 12,6.001 L12,4.999 C12.0002696,4.73327209 11.8945548,4.47840865 11.7062817,4.29088634 C11.5180086,4.10336404 11.2627247,3.99866856 10.997,4 L6.003,4 C5.73694991,3.99758758 5.48103787,4.10193479 5.2925288,4.28969208 C5.10401973,4.47744937 4.99865073,4.7329424 5,4.999 L5,6.002 Z M1.01,2 L2.99,2 C3.54228475,2 3.99,1.55228475 3.99,1 C3.99,0.44771525 3.54228475,0 2.99,0 L1.01,0 C0.74305512,-0.00266958 0.48612464,0.10150756 0.29641987,0.28933407 C0.1067151,0.47716057 -1.335e-05,0.73304177 -8.8817842e-16,1 C-8.8817842e-16,1.556 0.452,2 1.01,2 Z M6.003,2 L10.997,2 C11.2632244,2.0024155 11.5192904,1.89793166 11.707829,1.70995698 C11.8963676,1.5219823 12.001618,1.26623047 12,1 C12,0.444 11.551,0 10.997,0 L6.003,0 C5.73677557,-0.0024155 5.48070961,0.10206834 5.29217101,0.29004302 C5.10363241,0.4780177 4.99838199,0.73376953 5,1 C5,1.556 5.449,2 6.003,2 Z M-8.8817842e-16,11.001 C-8.8817842e-16,11.557 0.452,12 1.01,12 L2.99,12 C3.25685203,12.0029385 3.51378665,11.8989857 3.70352135,11.7113174 C3.89325605,11.5236491 4.00001618,11.2678682 4,11.001 L4,9.999 C4,9.443 3.548,9 2.99,9 L1.01,9 C0.74314797,8.9970615 0.48621335,9.1010143 0.29647865,9.2886826 C0.10674395,9.4763509 -1.618e-05,9.7321318 -8.8817842e-16,9.999 L-8.8817842e-16,11.001 Z M5,9.999 L5,11.001 C5,11.557 5.449,12 6.003,12 L10.997,12 C11.2630501,12.0024124 11.5189621,11.8980652 11.7074712,11.7103079 C11.8959803,11.5225506 12.0013493,11.2670576 12,11.001 L12,9.999 C12.0002696,9.7332721 11.8945548,9.4784086 11.7062817,9.2908863 C11.5180086,9.103364 11.2627247,8.9986686 10.997,9 L6.003,9 C5.73694991,8.9975876 5.48103787,9.1019348 5.2925288,9.2896921 C5.10401973,9.4774494 4.99865073,9.7329424 5,9.999 Z" fill="currentColor"/>
</svg>
