<svg width="16px" height="16px" viewBox="0 0 16 16" version="1.1" xmlns="http://www.w3.org/2000/svg" xmlns:xlink="http://www.w3.org/1999/xlink">
    <path d="M2.21489493e-16,1.994 C2.21489493e-16,0.893 0.895,0 1.994,0 L14.006,0 C15.107,0 16,0.895 16,1.994 L16,14.006 C15.9994482,15.1070272 15.1070272,15.9994482 14.006,16 L1.994,16 C0.892972834,15.9994482 0.000551755136,15.1070272 0,14.006 L0,1.994 L2.21489493e-16,1.994 Z M2,7 L2,8.002 C2,8.557 2.452,9 3.01,9 L4.99,9 C5.25685203,9.00293849 5.51378665,8.89898566 5.70352135,8.71131738 C5.89325605,8.5236491 6.00001618,8.2678682 6,8.001 L6,6.999 C6,6.443 5.548,6 4.99,6 L3.01,6 C2.74314797,5.99706151 2.48621335,6.10101434 2.29647865,6.28868262 C2.10674395,6.4763509 1.99998382,6.7321318 2,6.999 L2,7 Z M7,7 L7,8.002 C7,8.557 7.449,9 8.003,9 L12.997,9 C13.2630501,9.00241242 13.5189621,8.89806521 13.7074712,8.71030792 C13.8959803,8.52255063 14.0013493,8.2670576 14,8.001 L14,6.999 C14.0002696,6.73327209 13.8945548,6.47840865 13.7062817,6.29088634 C13.5180086,6.10336404 13.2627247,5.99866856 12.997,6 L8.003,6 C7.73694991,5.99758758 7.48103787,6.10193479 7.2925288,6.28969208 C7.10401973,6.47744937 6.99865073,6.7329424 7,6.999 L7,7 Z M2,3 C2,3.556 2.452,4 3.01,4 L4.99,4 C5.54228475,4 5.99,3.55228475 5.99,3 C5.99,2.44771525 5.54228475,2 4.99,2 L3.01,2 C2.74305512,1.99733042 2.48612464,2.10150756 2.29641987,2.28933407 C2.1067151,2.47716057 1.99998665,2.73304177 2,3 L2,3 Z M7,3 C7,3.556 7.449,4 8.003,4 L12.997,4 C13.2632244,4.0024155 13.5192904,3.89793166 13.707829,3.70995698 C13.8963676,3.5219823 14.001618,3.26623047 14,3 C14,2.444 13.551,2 12.997,2 L8.003,2 C7.73677557,1.9975845 7.48070961,2.10206834 7.29217101,2.29004302 C7.10363241,2.4780177 6.99838199,2.73376953 7,3 L7,3 Z M2,11.999 L2,13.001 C2,13.557 2.452,14 3.01,14 L4.99,14 C5.25685203,14.0029385 5.51378665,13.8989857 5.70352135,13.7113174 C5.89325605,13.5236491 6.00001618,13.2678682 6,13.001 L6,11.999 C6,11.443 5.548,11 4.99,11 L3.01,11 C2.74314797,10.9970615 2.48621335,11.1010143 2.29647865,11.2886826 C2.10674395,11.4763509 1.99998382,11.7321318 2,11.999 L2,11.999 Z M7,11.999 L7,13.001 C7,13.557 7.449,14 8.003,14 L12.997,14 C13.2630501,14.0024124 13.5189621,13.8980652 13.7074712,13.7103079 C13.8959803,13.5225506 14.0013493,13.2670576 14,13.001 L14,11.999 C14.0002696,11.7332721 13.8945548,11.4784086 13.7062817,11.2908863 C13.5180086,11.103364 13.2627247,10.9986686 12.997,11 L8.003,11 C7.73694991,10.9975876 7.48103787,11.1019348 7.2925288,11.2896921 C7.10401973,11.4774494 6.99865073,11.7329424 7,11.999 Z" fill="currentColor"></path>
</svg>
