<?xml version="1.0" standalone="no"?>
<!DOCTYPE svg PUBLIC "-//W3C//DTD SVG 20010904//EN"
 "http://www.w3.org/TR/2001/REC-SVG-20010904/DTD/svg10.dtd">
<svg version="1.0" xmlns="http://www.w3.org/2000/svg"
 width="700.000000pt" height="700.000000pt" viewBox="0 0 700.000000 700.000000"
 preserveAspectRatio="xMidYMid meet">
<metadata>
Created by potrace 1.11, written by Peter Selinger 2001-2013
</metadata>
<g transform="translate(0.000000,700.000000) scale(0.100000,-0.100000)"
fill="#000000" stroke="none">
<path d="M2821 5414 c-200 -35 -380 -128 -514 -267 -55 -57 -107 -123 -107
-134 0 -6 -6 -16 -14 -22 -36 -30 -118 -239 -134 -341 -14 -89 -7 -291 12
-370 86 -349 345 -611 691 -699 198 -51 457 -18 645 82 219 116 387 318 459
551 32 104 33 111 37 257 4 180 -19 288 -98 446 -127 256 -392 452 -673 498
-77 13 -230 12 -304 -1z m274 -275 c191 -30 369 -166 463 -354 187 -372 -23
-830 -428 -934 -346 -88 -704 127 -796 479 -11 41 -18 102 -18 165 1 223 96
406 281 539 46 33 148 85 176 90 7 1 22 6 35 10 31 10 149 22 187 18 17 -1 62
-7 100 -13z"/>
<path d="M4180 5383 c-43 -22 -78 -88 -72 -138 6 -48 58 -99 124 -120 151 -48
291 -154 367 -279 41 -68 79 -160 87 -212 3 -21 8 -43 11 -47 11 -17 2 -182
-12 -245 -24 -102 -84 -218 -154 -294 -84 -91 -167 -145 -299 -193 -86 -32
-121 -69 -124 -132 -1 -45 27 -99 62 -121 29 -18 94 -23 133 -11 356 113 608
403 661 759 37 250 -36 534 -184 714 -114 139 -251 242 -394 297 -103 40 -160
46 -206 22z"/>
<path d="M2069 3026 c-2 -2 -23 -6 -47 -10 -70 -9 -182 -45 -257 -83 -193 -96
-343 -250 -433 -446 -72 -156 -88 -261 -87 -577 1 -212 3 -249 18 -277 36 -68
126 -92 188 -50 60 40 64 57 65 304 2 262 7 324 39 419 72 215 251 379 475
435 81 20 1799 20 1880 0 198 -49 371 -190 450 -365 55 -122 61 -172 64 -478
2 -236 2 -245 25 -276 28 -40 52 -53 106 -58 32 -3 50 2 76 19 62 41 64 53 64
347 0 273 -4 317 -45 453 -79 261 -294 488 -555 587 -33 12 -100 31 -150 41
-84 17 -149 19 -981 19 -490 0 -893 -2 -895 -4z"/>
<path d="M4984 2992 c-81 -42 -105 -130 -54 -201 19 -28 92 -71 119 -71 27 0
168 -81 219 -126 108 -94 187 -233 218 -379 3 -16 7 -145 9 -285 2 -153 7
-266 14 -283 39 -99 172 -116 231 -29 25 35 25 37 27 301 2 330 -11 415 -92
582 -105 217 -285 383 -505 466 -93 35 -151 43 -186 25z"/>
</g>
</svg>
